<svg xmlns="http://www.w3.org/2000/svg" width="512" height="512" viewBox="0 0 512 512">
  <!-- Background -->
  <rect width="512" height="512" rx="100" fill="#1976D2"/>

  <!-- Shield -->
  <path d="M256 80 L150 130 L150 270 C150 340 195 400 256 420 C317 400 362 340 362 270 L362 130 Z" fill="white" fill-opacity="0.95"/>

  <!-- Phone handset -->
  <path d="M200 210 C200 210 215 235 240 260 C265 285 290 300 290 300 L315 275 C320 270 330 268 337 272 L365 287 C373 291 377 300 374 308 L367 335 C364 343 356 348 348 346 C295 330 220 255 200 195 C198 187 203 180 211 177 L238 168 C246 165 255 169 258 177 L273 208 C276 215 274 224 269 229 Z" fill="#1565C0"/>

  <!-- X block symbol -->
  <path d="M310 140 L340 110 L358 128 L328 158 L358 188 L340 206 L310 176 L280 206 L262 188 L292 158 L262 128 L280 110 Z" fill="#F44336"/>
</svg>
